<?xml version="1.0" encoding="UTF-8" standalone="no"?>
<!-- Created with Inkscape (http://www.inkscape.org/) -->

<svg
   xmlns:dc="http://purl.org/dc/elements/1.1/"
   xmlns:cc="http://creativecommons.org/ns#"
   xmlns:rdf="http://www.w3.org/1999/02/22-rdf-syntax-ns#"
   xmlns:svg="http://www.w3.org/2000/svg"
   xmlns="http://www.w3.org/2000/svg"
   xmlns:sodipodi="http://sodipodi.sourceforge.net/DTD/sodipodi-0.dtd"
   xmlns:inkscape="http://www.inkscape.org/namespaces/inkscape"
   width="40mm"
   height="56mm"
   viewBox="0 0 40 56"
   version="1.1"
   id="svg5937"
   inkscape:version="0.92.1 r15371"
   sodipodi:docname="logo-loadersvg.svg">
  <defs
     id="defs5931" />
  <sodipodi:namedview
     id="base"
     pagecolor="#ffffff"
     bordercolor="#666666"
     borderopacity="1.0"
     inkscape:pageopacity="0.0"
     inkscape:pageshadow="2"
     inkscape:zoom="0.98994949"
     inkscape:cx="184.3145"
     inkscape:cy="69.247375"
     inkscape:document-units="mm"
     inkscape:current-layer="layer1"
     showgrid="false"
     inkscape:window-width="1366"
     inkscape:window-height="692"
     inkscape:window-x="0"
     inkscape:window-y="36"
     inkscape:window-maximized="1" />
  <metadata
     id="metadata5934">
    <rdf:RDF>
      <cc:Work
         rdf:about="">
        <dc:format>image/svg+xml</dc:format>
        <dc:type
           rdf:resource="http://purl.org/dc/dcmitype/StillImage" />
        <dc:title></dc:title>
      </cc:Work>
    </rdf:RDF>
  </metadata>
  <g
     inkscape:label="Camada 1"
     inkscape:groupmode="layer"
     id="layer1"
     transform="translate(0,-241)">
    <g
       id="g6043"
       transform="translate(-1.1666671,1.4821427)">
      <g
         style="opacity:1"
         inkscape:transform-center-y="7.2584905"
         inkscape:transform-center-x="34.059048"
         id="g5854"
         transform="matrix(-0.1714142,0,0,0.1714142,-57.504718,224.32868)">
        <g
           id="g5852"
           transform="matrix(0.5598592,0.05407798,-0.05407798,0.5598592,-1417.9405,-31.052458)">
          <path
             style="fill:#aab2bd"
             inkscape:connector-curvature="0"
             d="m 1620.1541,196.79764 -20.9672,-5.089 -10.4224,6.35125 99.5845,175.14617 46.1277,11.1958 z m 0,0"
             id="path5832" />
          <path
             style="fill:#e6e9ed"
             inkscape:connector-curvature="0"
             d="m 1745.6725,338.27415 -110.007,-168.79491 -10.4224,6.35126 -5.089,20.96714 114.3226,187.60422 z m 0,0"
             id="path5834" />
          <path
             style="fill:#fcd770"
             inkscape:connector-curvature="0"
             d="m 1572.2243,83.077204 c 0.3052,0.386293 0.5595,0.803595 0.8138,1.220904 l 8.764,14.381766 -31.2674,19.053766 -8.764,-14.38177 c -0.2543,-0.41731 -0.5086,-0.83461 -0.712,-1.28292 -1.9515,-3.84955 -2.4731,-8.284341 -1.4354,-12.559672 1.1912,-4.908036 4.2829,-8.864786 8.2542,-11.317973 4.0008,-2.404845 8.9346,-3.33868 13.8426,-2.147435 4.2754,1.03768 7.9776,3.534226 10.5042,7.033334 z m 0,0"
             id="path5836" />
          <path
             style="fill:#838f9b"
             inkscape:connector-curvature="0"
             d="m 1577.9769,151.03916 20.8449,-12.70251 -22.2278,-36.47606 -20.8449,12.70251 z m 0,0"
             id="path5838" />
          <path
             id="path5840"
             d="m 1609.2427,131.98284 -41.6898,25.40503 9.5269,15.63368 41.6898,-25.40502 z m 0,0"
             inkscape:connector-curvature="0"
             style="fill:#fcd770" />
          <path
             id="path5842"
             d="m 1587.5022,166.6703 -41.6898,25.40502 1.2623,31.38959 52.1122,-31.75627 -8.3868,-2.0356 z m 0,0"
             inkscape:connector-curvature="0"
             style="fill:#fcd770" />
          <path
             id="path5844"
             d="m 1677.3554,144.07422 -27.3184,-15.51146 -41.6899,25.40503 18.9316,13.47585 -2.0356,8.38686 z m 0,0"
             inkscape:connector-curvature="0"
             style="fill:#fcd770" />
          <path
             style="fill:#ffc729"
             inkscape:connector-curvature="0"
             d="m 1627.2787,167.44364 -18.9316,-13.47585 -20.8449,12.70251 3.2979,23.00274 29.354,7.1246 z m 0,0"
             id="path5846" />
          <path
             inkscape:connector-curvature="0"
             d="m 1576.7278,82.067109 11.0041,18.052001 -5.2113,3.17562 17.7389,29.1096 10.4224,-6.35125 9.5269,15.63368 29.7509,-18.1296 35.9056,20.38399 -44.1555,26.90755 108.5959,166.63115 -12.6534,52.13324 -52.1332,-12.65343 -98.3084,-172.90022 -44.1554,26.90755 -1.6561,-41.25507 29.7508,-18.1296 -9.5269,-15.63369 10.4225,-6.35125 -17.7389,-29.1096 -5.2112,3.17563 -11.0072,-18.05709 c -3.1395,-5.16344 -4.0852,-11.236265 -2.6614,-17.102561 2.9426,-12.123672 15.1996,-19.592911 27.3192,-16.651329 5.8786,1.426808 10.8422,5.051239 13.9817,10.214679 z m 73.3865,51.501271 -33.9361,20.6783 15.9827,11.37683 -0.2674,1.10159 36.9519,-22.5178 z m -57.9393,35.30715 2.4808,17.29288 22.3227,5.418 5.4179,-22.32263 -14.2315,-10.13222 z m 99.0039,200.57692 34.1924,8.29895 -32.6867,-53.63901 7.369,-4.49054 32.6867,53.63901 8.2989,-34.19241 -106.7035,-163.72611 -5.3206,3.2423 -4.2462,17.49446 68.9335,113.1203 -7.369,4.49053 -68.9335,-113.1203 -17.4944,-4.24613 -5.3207,3.2423 z m -140.9533,-175.01374 0.8644,21.52313 36.9559,-22.51681 -1.1016,-0.26737 -2.7882,-19.42079 z m 28.2934,-27.34693 34.3208,-20.91448 -5.0363,-8.26469 -34.3208,20.91449 z m 0.8956,-21.98494 13.4759,-8.21197 -17.7389,-29.1096 -13.4759,8.21197 z m -27.4406,-33.30297 23.8983,-14.56323 -5.0363,-8.264682 -23.8984,14.563232 z m -8.1602,-21.26451 c -0.4001,1.648295 -0.4591,3.320826 -0.2634,4.961959 l 21.6897,-13.217306 c -1.3637,-0.929413 -2.8772,-1.643671 -4.5296,-2.044727 -7.4982,-1.819915 -15.0768,2.801868 -16.8967,10.300074 z m 0,0"
             id="path5848" />
          <path
             inkscape:connector-curvature="0"
             d="m 1610.6272,181.16395 2.0356,-8.38685 -8.3869,-2.0356 -2.0356,8.38685 z m 0,0"
             id="path5850" />
        </g>
      </g>
      <g
         transform="matrix(0.1714142,0,0,0.1714142,99.820216,224.32868)"
         id="g5830"
         inkscape:transform-center-x="-34.059043"
         inkscape:transform-center-y="7.2584905"
         style="opacity:1">
        <g
           transform="matrix(0.5598592,0.05407798,-0.05407798,0.5598592,-1417.9405,-31.052458)"
           id="g5828">
          <path
             id="path5808"
             d="m 1620.1541,196.79764 -20.9672,-5.089 -10.4224,6.35125 99.5845,175.14617 46.1277,11.1958 z m 0,0"
             inkscape:connector-curvature="0"
             style="fill:#aab2bd" />
          <path
             id="path5810"
             d="m 1745.6725,338.27415 -110.007,-168.79491 -10.4224,6.35126 -5.089,20.96714 114.3226,187.60422 z m 0,0"
             inkscape:connector-curvature="0"
             style="fill:#e6e9ed" />
          <path
             id="path5812"
             d="m 1572.2243,83.077204 c 0.3052,0.386293 0.5595,0.803595 0.8138,1.220904 l 8.764,14.381766 -31.2674,19.053766 -8.764,-14.38177 c -0.2543,-0.41731 -0.5086,-0.83461 -0.712,-1.28292 -1.9515,-3.84955 -2.4731,-8.284341 -1.4354,-12.559672 1.1912,-4.908036 4.2829,-8.864786 8.2542,-11.317973 4.0008,-2.404845 8.9346,-3.33868 13.8426,-2.147435 4.2754,1.03768 7.9776,3.534226 10.5042,7.033334 z m 0,0"
             inkscape:connector-curvature="0"
             style="fill:#fcd770" />
          <path
             id="path5814"
             d="m 1577.9769,151.03916 20.8449,-12.70251 -22.2278,-36.47606 -20.8449,12.70251 z m 0,0"
             inkscape:connector-curvature="0"
             style="fill:#838f9b" />
          <path
             style="fill:#fcd770"
             inkscape:connector-curvature="0"
             d="m 1609.2427,131.98284 -41.6898,25.40503 9.5269,15.63368 41.6898,-25.40502 z m 0,0"
             id="path5816" />
          <path
             style="fill:#fcd770"
             inkscape:connector-curvature="0"
             d="m 1587.5022,166.6703 -41.6898,25.40502 1.2623,31.38959 52.1122,-31.75627 -8.3868,-2.0356 z m 0,0"
             id="path5818" />
          <path
             style="fill:#fcd770"
             inkscape:connector-curvature="0"
             d="m 1677.3554,144.07422 -27.3184,-15.51146 -41.6899,25.40503 18.9316,13.47585 -2.0356,8.38686 z m 0,0"
             id="path5820" />
          <path
             id="path5822"
             d="m 1627.2787,167.44364 -18.9316,-13.47585 -20.8449,12.70251 3.2979,23.00274 29.354,7.1246 z m 0,0"
             inkscape:connector-curvature="0"
             style="fill:#ffc729" />
          <path
             id="path5824"
             d="m 1576.7278,82.067109 11.0041,18.052001 -5.2113,3.17562 17.7389,29.1096 10.4224,-6.35125 9.5269,15.63368 29.7509,-18.1296 35.9056,20.38399 -44.1555,26.90755 108.5959,166.63115 -12.6534,52.13324 -52.1332,-12.65343 -98.3084,-172.90022 -44.1554,26.90755 -1.6561,-41.25507 29.7508,-18.1296 -9.5269,-15.63369 10.4225,-6.35125 -17.7389,-29.1096 -5.2112,3.17563 -11.0072,-18.05709 c -3.1395,-5.16344 -4.0852,-11.236265 -2.6614,-17.102561 2.9426,-12.123672 15.1996,-19.592911 27.3192,-16.651329 5.8786,1.426808 10.8422,5.051239 13.9817,10.214679 z m 73.3865,51.501271 -33.9361,20.6783 15.9827,11.37683 -0.2674,1.10159 36.9519,-22.5178 z m -57.9393,35.30715 2.4808,17.29288 22.3227,5.418 5.4179,-22.32263 -14.2315,-10.13222 z m 99.0039,200.57692 34.1924,8.29895 -32.6867,-53.63901 7.369,-4.49054 32.6867,53.63901 8.2989,-34.19241 -106.7035,-163.72611 -5.3206,3.2423 -4.2462,17.49446 68.9335,113.1203 -7.369,4.49053 -68.9335,-113.1203 -17.4944,-4.24613 -5.3207,3.2423 z m -140.9533,-175.01374 0.8644,21.52313 36.9559,-22.51681 -1.1016,-0.26737 -2.7882,-19.42079 z m 28.2934,-27.34693 34.3208,-20.91448 -5.0363,-8.26469 -34.3208,20.91449 z m 0.8956,-21.98494 13.4759,-8.21197 -17.7389,-29.1096 -13.4759,8.21197 z m -27.4406,-33.30297 23.8983,-14.56323 -5.0363,-8.264682 -23.8984,14.563232 z m -8.1602,-21.26451 c -0.4001,1.648295 -0.4591,3.320826 -0.2634,4.961959 l 21.6897,-13.217306 c -1.3637,-0.929413 -2.8772,-1.643671 -4.5296,-2.044727 -7.4982,-1.819915 -15.0768,2.801868 -16.8967,10.300074 z m 0,0"
             inkscape:connector-curvature="0" />
          <path
             id="path5826"
             d="m 1610.6272,181.16395 2.0356,-8.38685 -8.3869,-2.0356 -2.0356,8.38685 z m 0,0"
             inkscape:connector-curvature="0" />
        </g>
      </g>
      <g
         id="g5859"
         transform="matrix(0.35277777,0,0,-0.35277777,72.650606,460.08972)">
        <path
           d="m -112.18945,496.6999 c 0.5,0.4 1,0.9 1.6,1.4 0.881,0.882 1.763,1.774 2.644,2.724 1.338,1.549 2.582,3.251 3.711,5.052 0.574,0.941 1.138,1.883 1.645,2.824 0.001,10e-4 0.002,0.003 0.002,0.004 0.64,1.207 1.219,2.444 1.741,3.693 0.052,0.135 0.109,0.269 0.157,0.403 0.144,0.335 0.262,0.669 0.395,1.004 1.142999,3.034 1.909999,6.115 2.182999,9.05 0.005,0.114 0.022,0.238 0.022,0.346 0,0.6 0.1,1.3 0.1,2 v 39.4 l -47.899999,23.5 -47.9,-23.4 v -39.4 c 0,-0.595 0.028,-1.201 0.074,-1.813 0.01,-0.095 0.011,-0.196 0.026,-0.287 0.009,-0.06 0.01,-0.112 0.017,-0.171 0.416,-4.517 2.02,-9.458 4.583,-14.329 1.079,-2.049 2.277,-3.962 3.561,-5.711 0.132,-0.18 0.265,-0.356 0.399,-0.531 2.184,-2.877 4.605,-5.268 7.14,-6.958 v 0 l 32.1,-21.9 32.1,21.9 c 0.5,0.4 1.1,0.8 1.6,1.2"
           style="fill:#e9b625;fill-opacity:1;fill-rule:nonzero;stroke:none"
           id="path5772"
           inkscape:connector-curvature="0" />
        <path
           style="fill:#000000;fill-opacity:1;fill-rule:nonzero;stroke:none;stroke-width:1.33333325"
           d="m -194.58594,332.36719 c -0.43333,0 -0.86562,0.0988 -1.26562,0.29883 l -66.80078,32.66796 c -1.06667,0.53334 -1.73243,1.46602 -1.73243,2.66602 v 54.26758 c 0,7.6 2.53165,16.39883 6.93165,24.79883 4.39999,8.4 10.4013,15.33437 16.66796,19.73437 l 44.53321,30.39844 c 0.93333,0.66667 2.26536,0.66667 3.33203,0 l 44.53515,-30.39844 c 6.26667,-4.26667 12.26602,-11.33489 16.66602,-19.60156 4.4,-8.4 6.93359,-17.19883 6.93359,-24.79883 v -54.26758 c 0,-1.06666 -0.6677,-2.13268 -1.73437,-2.66601 l -66.79883,-32.80078 c -0.4,-0.2 -0.83424,-0.29883 -1.26758,-0.29883 z m 0.0664,6.0332 63.86719,31.33203 v 52.53516 c 0,14 -9.46641,31.73294 -21.06641,39.59961 l -42.80078,29.19922 -42.79883,-29.19922 c -5.6,-3.73334 -10.80078,-9.99961 -14.80078,-17.59961 -4,-7.6 -6.26563,-15.33477 -6.26563,-22.13477 v -52.5332 z m 11.41211,46.23828 -32.80078,47.04883 h 9.80664 l 32.86718,-47.04883 z m -38.63281,11.06445 -27.96485,16.9004 v 4.30664 l 27.96485,16.5664 v -9.9414 l -15.04297,-9.01172 15.04297,-9.40821 z m 54.33789,0.002 v 9.4082 l 15.04296,9.41211 -15.04296,9.01172 v 9.93945 l 27.96484,-16.5664 v -4.30664 z"
           id="path5770"
           transform="matrix(0.75000002,0,0,-0.75000002,0,841.9)"
           inkscape:connector-curvature="0" />
      </g>
    </g>
  </g>
</svg>
