<?xml version="1.0" encoding="UTF-8" standalone="no"?>
<svg
   xmlns:dc="http://purl.org/dc/elements/1.1/"
   xmlns:cc="http://creativecommons.org/ns#"
   xmlns:rdf="http://www.w3.org/1999/02/22-rdf-syntax-ns#"
   xmlns:svg="http://www.w3.org/2000/svg"
   xmlns="http://www.w3.org/2000/svg"
   width="72"
   height="72"
   viewBox="0 0 19.05 19.050001"
   version="1.1"
   id="svg8">
  <defs
     id="defs2" />
  <metadata
     id="metadata5">
    <rdf:RDF>
      <cc:Work
         rdf:about="">
        <dc:format>image/svg+xml</dc:format>
        <dc:type
           rdf:resource="http://purl.org/dc/dcmitype/StillImage" />
        <dc:title></dc:title>
      </cc:Work>
    </rdf:RDF>
  </metadata>
  <path
     id="path4569"
     transform="scale(0.26458334)"
     d="M 36 2 A 30.060499 30.060499 0 0 0 5.9394531 32.060547 A 30.060499 30.060499 0 0 0 32.185547 61.839844 L 32.185547 59 A 27.066075 27.066075 0 0 1 8.9335938 32.236328 A 27.066075 27.066075 0 0 1 36 5.1699219 A 27.066075 27.066075 0 0 1 63.066406 32.236328 A 27.066075 27.066075 0 0 1 39.810547 59.003906 L 39.810547 61.847656 A 30.060499 30.060499 0 0 0 66.060547 32.060547 A 30.060499 30.060499 0 0 0 36 2 z M 35.537109 59.279297 L 35.537109 62.105469 A 30.060499 30.060499 0 0 0 36 62.121094 A 30.060499 30.060499 0 0 0 36.458984 62.097656 L 36.458984 59.287109 A 27.066075 27.066075 0 0 1 36 59.302734 A 27.066075 27.066075 0 0 1 35.537109 59.279297 z "
     style="opacity:1;fill:#000000;fill-opacity:1;stroke:none;stroke-width:0.49098605;stroke-linecap:round;stroke-linejoin:bevel;stroke-miterlimit:4;stroke-dasharray:none;stroke-opacity:1" />
  <rect
     ry="0.56529671"
     y="6.6459417"
     x="8.9597034"
     height="11.431557"
     width="1.1305934"
     id="rect4583"
     style="opacity:1;fill:#000000;fill-opacity:1;stroke:none;stroke-width:0.07428953;stroke-linecap:round;stroke-linejoin:bevel;stroke-miterlimit:4;stroke-dasharray:none;stroke-opacity:1" />
</svg>
